<svg xmlns="http://www.w3.org/2000/svg" xmlns:xlink="http://www.w3.org/1999/xlink" version="1.1" width="1000" height="1000" viewBox="0 0 1000 1000" xml:space="preserve">
<desc>Created with Fabric.js 3.5.0</desc>
<defs>
</defs>
<rect x="0" y="0" width="100%" height="100%" fill="#ffffff"/>
<g transform="matrix(1.4205 0 0 1.4205 500.0145 500.0116)" id="814612">
<path style="stroke: none; stroke-width: 1; stroke-dasharray: none; stroke-linecap: butt; stroke-dashoffset: 0; stroke-linejoin: miter; stroke-miterlimit: 4; is-custom-font: none; font-file-url: none; fill: rgb(244,63,94); fill-rule: nonzero; opacity: 1;" vector-effect="non-scaling-stroke" transform=" translate(-320, -256)" d="M 252.3 11.7 c -15.6 -15.6 -40.9 -15.6 -56.6 0 l -184 184 c -15.6 15.6 -15.6 40.9 0 56.6 l 184 184 c 15.6 15.6 40.9 15.6 56.6 0 l 184 -184 c 15.6 -15.6 15.6 -40.9 0 -56.6 l -184 -184 z M 248 224 c 0 13.3 -10.7 24 -24 24 s -24 -10.7 -24 -24 s 10.7 -24 24 -24 s 24 10.7 24 24 z M 96 248 c -13.3 0 -24 -10.7 -24 -24 s 10.7 -24 24 -24 s 24 10.7 24 24 s -10.7 24 -24 24 z m 128 80 c 13.3 0 24 10.7 24 24 s -10.7 24 -24 24 s -24 -10.7 -24 -24 s 10.7 -24 24 -24 z m 128 -80 c -13.3 0 -24 -10.7 -24 -24 s 10.7 -24 24 -24 s 24 10.7 24 24 s -10.7 24 -24 24 z M 224 72 c 13.3 0 24 10.7 24 24 s -10.7 24 -24 24 s -24 -10.7 -24 -24 s 10.7 -24 24 -24 z m 96 392 c 0 26.5 21.5 48 48 48 H 592 c 26.5 0 48 -21.5 48 -48 V 240 c 0 -26.5 -21.5 -48 -48 -48 H 472.5 c 13.4 26.9 8.8 60.5 -13.6 82.9 L 320 413.8 V 464 z m 160 -88 c -13.3 0 -24 -10.7 -24 -24 s 10.7 -24 24 -24 s 24 10.7 24 24 s -10.7 24 -24 24 z" stroke-linecap="round"/>
</g>
</svg>